Coordinates
version=1
nRows=8
nColumns=40
inDegrees=yes

Units are S.I. units (second, meters, Newtons, ...)
If the header above contains a line with 'inDegrees', this indicates whether rotational values are in degrees (yes) or radians (no).

endheader
time	pelvis_tilt	pelvis_list	pelvis_rotation	pelvis_tx	pelvis_ty	pelvis_tz	hip_flexion_r	hip_adduction_r	hip_rotation_r	knee_angle_r	knee_angle_r_beta	ankle_angle_r	subtalar_angle_r	mtp_angle_r	hip_flexion_l	hip_adduction_l	hip_rotation_l	knee_angle_l	knee_angle_l_beta	ankle_angle_l	subtalar_angle_l	mtp_angle_l	lumbar_extension	lumbar_bending	lumbar_rotation	arm_flex_r	arm_add_r	arm_rot_r	elbow_flex_r	pro_sup_r	wrist_flex_r	wrist_dev_r	arm_flex_l	arm_add_l	arm_rot_l	elbow_flex_l	pro_sup_l	wrist_flex_l	wrist_dev_l
      0.71500000	      1.23268302	     -4.63552888	     -7.88487041	      0.25249622	      0.90203344	      0.26231025	    -20.64774698	     -0.60368403	    -13.60585727	     13.39204765	      0.23373533	      6.33457534	     12.69293523	      0.00000000	     25.44537652	    -12.17104310	    -24.15162436	      8.86518795	      0.15472672	     -0.81362410	     12.15676697	      0.00000000	     -4.96443925	      5.69345180	      3.21871140	     35.40527035	    -14.40303175	     35.40527035	     77.62609541	     44.75237539	      0.00000000	      0.00000000	     35.40527035	    -14.40303175	     35.40527035	     77.62609541	     44.75237539	      0.00000000	      0.00000000
      0.72000000	      1.37454064	     -4.29984521	     -8.02770819	      0.26040897	      0.90187349	      0.26158614	    -20.91512010	     -1.21296917	    -13.38271976	     13.89501637	      0.24251379	      5.45611782	     12.17653805	      0.00000000	     25.20722082	    -11.87858136	    -24.33308540	      9.52812614	      0.16629717	     -1.20516754	     11.33827192	      0.00000000	     -4.98590595	      5.17986824	      3.32217074	     35.41296180	    -14.40381860	     35.41296180	     77.61930846	     44.75414679	      0.00000000	      0.00000000	     35.41296180	    -14.40381860	     35.41296180	     77.61930846	     44.75414679	      0.00000000	      0.00000000
      0.72500000	      1.55429526	     -3.89618534	     -8.23047458	      0.26833981	      0.90188466	      0.26106953	    -21.17195192	     -1.89966914	    -13.07327432	     14.45176914	      0.25223095	      4.53210469	     11.48514900	      0.00000000	     24.87333178	    -11.53552610	    -24.58260588	     10.14033318	      0.17698220	     -1.69735361	     10.46524265	      0.00000000	     -5.03702895	      4.56222849	      3.54631487	     35.42103848	    -14.40464443	     35.42103848	     77.61219467	     44.75599471	      0.00000000	      0.00000000	     35.42103848	    -14.40464443	     35.42103848	     77.61219467	     44.75599471	      0.00000000	      0.00000000
      0.73000000	      1.77110423	     -3.44371803	     -8.46628160	      0.27627853	      0.90207498	      0.26065277	    -21.41998220	     -2.64393447	    -12.70544471	     15.05226275	      0.26271154	      3.50854887	     10.67354248	      0.00000000	     24.46708034	    -11.14721353	    -24.85200123	     10.71993724	      0.18709820	     -2.28559267	      9.57834215	      0.00000000	     -5.12491875	      3.87073569	      3.83113632	     35.43024485	    -14.40558522	     35.43024485	     77.60410225	     44.75808587	      0.00000000	      0.00000000	     35.43024485	    -14.40558522	     35.43024485	     77.60410225	     44.75808587	      0.00000000	      0.00000000
      0.73500000	      2.04723830	     -2.86006874	     -8.82025010	      0.28421017	      0.90250813	      0.26061156	    -21.65080084	     -3.54114599	    -12.20725214	     15.72061780	      0.27437654	      2.43534830	      9.53214715	      0.00000000	     23.90115351	    -10.64209385	    -25.18817659	     11.15320509	      0.19466015	     -3.00733857	      8.60456569	      0.00000000	     -5.25507221	      2.97106041	      4.29563727	     35.44656746	    -14.40725187	     35.44656746	     77.58979571	     44.76175530	      0.00000000	      0.00000000	     35.44656746	    -14.40725187	     35.44656746	     77.58979571	     44.76175530	      0.00000000	      0.00000000
      0.74000000	      2.30888528	     -2.40249516	     -9.00506375	      0.29214165	      0.90295496	      0.26015614	    -21.86572564	     -4.27278063	    -11.87705673	     16.40300334	      0.28628642	      1.15707462	      8.63124823	      0.00000000	     23.46126680	    -10.22208536	    -25.38681094	     11.74065795	      0.20491314	     -3.68515666	      7.76392552	      0.00000000	     -5.38135170	      2.25228263	      4.55467554	     35.46357207	    -14.40898628	     35.46357207	     77.57494785	     44.76552659	      0.00000000	      0.00000000	     35.46357207	    -14.40898628	     35.46357207	     77.57494785	     44.76552659	      0.00000000	      0.00000000
      0.74500000	      2.54368660	     -2.06858808	     -9.02103165	      0.30008165	      0.90340051	      0.25933558	    -22.03280441	     -4.83557688	    -11.74263424	     17.14244508	      0.29919211	     -0.30056343	      7.89665055	      0.00000000	     23.18726936	     -9.92073121	    -25.49584541	     12.58331849	      0.21962034	     -4.24180765	      7.03117801	      0.00000000	     -5.49499977	      1.70146289	      4.62039635	     35.46906936	    -14.40954652	     35.46906936	     77.57016149	     44.76673374	      0.00000000	      0.00000000	     35.46906936	    -14.40954652	     35.46906936	     77.57016149	     44.76673374	      0.00000000	      0.00000000
      0.75000000	      2.72829103	     -1.56618388	     -9.20377595	      0.30796091	      0.90388986	      0.25897570	    -22.01201040	     -5.57413643	    -11.36298656	     18.04130511	      0.31488018	     -1.71121880	      6.44065871	      0.00000000	     22.85510105	     -9.47778245	    -25.62168809	     13.22089953	      0.23074823	     -4.88787499	      6.20564017	      0.00000000	     -5.51592370	      0.92036375	      4.90956904	     35.48609256	    -14.41128016	     35.48609256	     77.55537707	     44.77043736	      0.00000000	      0.00000000	     35.48609256	    -14.41128016	     35.48609256	     77.55537707	     44.77043736	      0.00000000	      0.00000000
